<?xml version="1.0" encoding="iso-8859-1"?>
<!-- Generator: Adobe Illustrator 19.0.0, SVG Export Plug-In . SVG Version: 6.00 Build 0)  -->
<svg version="1.1" id="Capa_1" xmlns="http://www.w3.org/2000/svg" xmlns:xlink="http://www.w3.org/1999/xlink" x="0px" y="0px"
	 viewBox="0 0 511.999 511.999" style="enable-background:new 0 0 511.999 511.999;" xml:space="preserve">
<g>
	<g>
		<g>
			<path d="M303.022,137.191c1.919,0,3.839-0.732,5.303-2.197l45.614-45.614c2.929-2.929,2.929-7.678,0-10.606
				c-2.929-2.929-7.678-2.929-10.606,0l-45.614,45.614c-2.929,2.929-2.929,7.678,0,10.606
				C299.183,136.459,301.103,137.191,303.022,137.191z"/>
			<path d="M474.144,200.209c-1.777-3.741-6.25-5.337-9.992-3.56c-3.742,1.776-5.336,6.249-3.56,9.992
				c7.326,15.437,11.041,32,11.041,49.229c0,43.954-23.008,107.648-45.734,147.847C406.203,438.555,364.413,497,305.825,497
				c-14.548,0-29.127-5.937-38.794-10.918c-6.907-3.558-15.154-3.557-22.062,0C235.301,491.063,220.723,497,206.174,497
				c-18.073,0-35.948-5.572-53.129-16.561c-3.491-2.233-8.128-1.211-10.359,2.277c-2.232,3.489-1.213,8.127,2.277,10.359
				c19.633,12.557,40.227,18.924,61.212,18.924c17.554,0,34.522-6.843,45.665-12.584c2.604-1.342,5.716-1.342,8.321,0
				c11.143,5.741,28.111,12.584,45.665,12.584c26.7,0,52.544-10.217,76.813-30.37c20.566-17.076,39.514-40.806,56.318-70.531
				c32.757-57.94,47.677-121.082,47.677-155.229C486.633,236.399,482.431,217.673,474.144,200.209z"/>
			<path d="M302.262,266.083c0,4.142,3.358,7.5,7.5,7.5s7.5-3.358,7.5-7.5c0-4.409,3.587-7.996,7.996-7.996s7.996,3.587,7.996,7.996
				c0,4.142,3.358,7.5,7.5,7.5s7.5-3.358,7.5-7.5c0-12.68-10.316-22.997-22.997-22.997S302.262,253.403,302.262,266.083z"/>
			<path d="M266.782,279.266c-2.723,3.125-6.653,4.916-10.783,4.916c-4.13,0-8.06-1.792-10.783-4.916
				c-2.722-3.122-7.459-3.447-10.582-0.727c-3.123,2.722-3.448,7.459-0.727,10.582c5.572,6.394,13.624,10.061,22.092,10.061
				s16.519-3.667,22.092-10.061c2.721-3.123,2.396-7.86-0.727-10.582C274.241,275.819,269.503,276.143,266.782,279.266z"/>
			<path d="M163.743,266.083c0,4.142,3.358,7.5,7.5,7.5c4.142,0,7.5-3.358,7.5-7.5c0-4.409,3.587-7.996,7.996-7.996
				c4.409,0,7.996,3.587,7.996,7.996c0,4.142,3.358,7.5,7.5,7.5c4.142,0,7.5-3.358,7.5-7.5c0-12.68-10.316-22.997-22.997-22.997
				C174.059,243.086,163.743,253.403,163.743,266.083z"/>
			<path d="M61.832,351.771c-13.441-35.265-21.467-71.116-21.467-95.9c0-63.402,51.581-114.982,114.982-114.982
				c20.55,0,40.714,5.486,58.311,15.865c17.035,10.048,36.893,13.651,56.337,10.335c8.799,7.561,20.558,11.227,33.213,11.227
				c19.258,0,40.574-8.463,56.611-24.501c3.898-3.898,7.438-7.942,10.672-12.075c25.431,3.064,49.264,14.626,67.486,32.855
				c1.465,1.465,3.385,2.198,5.305,2.198c1.919,0,3.838-0.732,5.302-2.195c2.93-2.929,2.931-7.677,0.003-10.607
				c-18.752-18.76-42.766-31.283-68.62-35.993c16.253-26.895,21.299-55.223,22.818-72.176c0.632-7.057-1.882-13.981-6.898-18.997
				c-5.016-5.016-11.94-7.526-18.996-6.898c-13.822,1.239-35.21,4.832-57.215,14.924c3.229-5.547,4.579-11.958,3.822-18.447
				c-0.926-7.928-4.884-15.02-11.145-19.972c-12.923-10.22-31.754-8.021-41.976,4.902c-14.918,18.863-26.098,40.794-33.499,65.605
				c-1.218-1.396-2.478-2.745-3.778-4.045c-32.672-32.672-75.42-40.943-97.993-42.966c-7.052-0.631-13.98,1.882-18.996,6.897
				c-5.016,5.016-7.531,11.94-6.898,18.997c1.726,19.258,7.168,46.434,22.787,72.172C71.43,139.024,25.365,192.167,25.365,255.87
				c0,48.511,29.754,147.871,85.619,208.25c1.478,1.597,3.489,2.406,5.507,2.406c1.822,0,3.649-0.66,5.092-1.995
				c3.04-2.813,3.225-7.558,0.411-10.599C98.721,428.779,77.354,392.497,61.832,351.771z M378.231,44.866
				c2.618-0.236,5.187,0.701,7.051,2.564c1.864,1.864,2.799,4.434,2.564,7.051c-1.841,20.55-9.309,59.402-38.632,88.725
				c-21.472,21.471-55.248,26.803-70.879,11.19l-0.142-0.155c-0.121-0.134-0.244-0.268-0.369-0.4
				c-0.01-0.011-0.022-0.019-0.032-0.03c-14.949-15.86-9.509-49.093,11.712-70.315C318.828,54.176,357.681,46.708,378.231,44.866z
				 M282.142,20.638c5.091-6.437,14.469-7.531,20.906-2.441c3.118,2.466,5.089,5.998,5.55,9.946
				c0.461,3.948-0.643,7.84-3.109,10.958c-5.559,7.03-10.538,14.891-14.831,23.371c-4.023,3.167-7.961,6.622-11.759,10.42
				c-23.123,23.123-30.494,57.212-19.461,80.298c-6.176,0.318-12.332-0.199-18.322-1.533
				C241.999,98.021,255.789,53.961,282.142,20.638z M124.152,54.481c-0.234-2.617,0.7-5.187,2.564-7.051
				c1.864-1.864,4.438-2.799,7.051-2.564c20.55,1.841,59.401,9.308,88.725,38.632c3.6,3.6,6.83,7.679,9.635,12.144
				c-3.368,15.91-5.341,32.863-5.897,50.827c-1.678-0.813-3.333-1.683-4.953-2.638c-4.202-2.479-8.54-4.695-12.977-6.674
				c0.225,0.02,0.45,0.032,0.675,0.032c1.919,0,3.839-0.732,5.303-2.197c2.929-2.929,2.929-7.678,0-10.606l-45.614-45.614
				c-2.929-2.929-7.678-2.929-10.606,0c-2.929,2.929-2.929,7.678,0,10.606l45.614,45.614c0.133,0.133,0.274,0.254,0.415,0.375
				c-15.404-6.226-31.957-9.481-48.74-9.481c-2.264,0-4.514,0.059-6.75,0.174C131.534,101.129,125.863,73.573,124.152,54.481z"/>
		</g>
	</g>
</g>
<g>
</g>
<g>
</g>
<g>
</g>
<g>
</g>
<g>
</g>
<g>
</g>
<g>
</g>
<g>
</g>
<g>
</g>
<g>
</g>
<g>
</g>
<g>
</g>
<g>
</g>
<g>
</g>
<g>
</g>
</svg>
